<?xml version="1.0" encoding="utf-8"?>
<!-- Generator: Adobe Illustrator 22.0.0, SVG Export Plug-In . SVG Version: 6.00 Build 0)  -->
<svg version="1.1" id="Calque_1" xmlns="http://www.w3.org/2000/svg" xmlns:xlink="http://www.w3.org/1999/xlink" x="0px" y="0px"
	 viewBox="0 0 80 80" style="enable-background:new 0 0 80 80;" xml:space="preserve">
<style type="text/css">
	.st0{fill:#FFFFFF;}
</style>
<g>
	<path class="st0" d="M64.29999,37.39996L17.5,9.29999c-1-0.5-2.09998-0.5-3,0c-1,0.5-1.5,1.5-1.5,2.59998v56.20001
		c0,1.10004,0.59998,2.10004,1.5,2.60004C15,71,15.5,71.09998,16,71.09998S17.09998,71,17.5,70.70001l46.79999-28.10004
		c0.90002-0.5,1.5-1.5,1.5-2.59998C65.79999,38.89996,65.29999,38,64.29999,37.39996z M63.29999,40.89996L16.40002,69
		c-0.5,0.29999-0.90002,0.09998-1,0c-0.10004-0.10004-0.5-0.29999-0.5-0.90002V11.89996c0-0.5,0.39996-0.79999,0.5-0.89996
		c0.09998-0.10004,0.29999-0.10004,0.5-0.10004c0.19995,0,0.29999,0,0.5,0.10004l46.79999,28.09998
		c0.5,0.29999,0.59998,0.70001,0.59998,0.90002S63.79999,40.59998,63.29999,40.89996z"/>
	<path class="st0" d="M63.79999,40c0,0.20001,0,0.59998-0.5,0.89996L16.40002,69c-0.5,0.29999-0.90002,0.09998-1,0
		c-0.10004-0.10004-0.5-0.29999-0.5-0.90002V11.89996c0-0.5,0.39996-0.79999,0.5-0.89996
		c0.09998-0.10004,0.29999-0.10004,0.5-0.10004c0.19995,0,0.29999,0,0.5,0.10004l46.79999,28.09998
		C63.70001,39.39996,63.79999,39.79999,63.79999,40z"/>
</g>
</svg>
