<?xml version="1.0" encoding="utf-8"?>
<!-- Generator: Adobe Illustrator 22.0.0, SVG Export Plug-In . SVG Version: 6.00 Build 0)  -->
<svg version="1.1" id="Calque_1" xmlns="http://www.w3.org/2000/svg" xmlns:xlink="http://www.w3.org/1999/xlink" x="0px" y="0px"
	 viewBox="0 0 80 80" style="enable-background:new 0 0 80 80;" xml:space="preserve">
<style type="text/css">
	.st0{fill:#FFFFFF;}
</style>
<path class="st0" d="M74.126,25.7168c-4.09911,23.0947-26.999,42.6475-33.88771,47.1143
	c-6.8926,4.458-13.1748-1.7969-15.4531-6.5215c-2.6094-5.3926-10.43019-34.6299-12.4751-37.0547
	c-2.0479-2.4253-8.1919,2.4248-8.1919,2.4248l-2.9776-3.9121c0,0,12.4751-14.8955,21.9668-16.7647
	c10.0664-1.9658,10.0513,15.4619,12.4761,25.1392c2.3394,9.3667,3.9121,14.7143,5.958,14.7143
	c2.0483,0,5.95851-5.2138,10.2398-13.2211c4.2895-8.0123-0.1836-15.0884-8.5674-10.0562
	C46.56839,7.4727,78.22559,2.6357,74.126,25.7168z"/>
</svg>
