<?xml version="1.0" encoding="utf-8"?>
<!-- Generator: Adobe Illustrator 22.0.0, SVG Export Plug-In . SVG Version: 6.00 Build 0)  -->
<svg version="1.1" id="Calque_1" xmlns="http://www.w3.org/2000/svg" xmlns:xlink="http://www.w3.org/1999/xlink" x="0px" y="0px"
	 viewBox="0 0 80 80" style="enable-background:new 0 0 80 80;" xml:space="preserve">
<style type="text/css">
	.st0{fill:#FFFFFF;}
</style>
<path class="st0" d="M59.87,7.60999H19.15997c-7.06995,0-12.81995,5.75-12.81995,12.82001v40.71002
	c0,7.06995,5.75,12.81995,12.81995,12.81995H59.87c7.07001,0,12.83002-5.75,12.83002-12.81995V20.42999
	C72.70001,13.35999,66.94,7.60999,59.87,7.60999z M63.54999,15.26001L65.02002,15.25v11.23999L53.81,26.52997l-0.03998-11.23999
	L63.54999,15.26001z M29.34998,35.08997c0.21002-0.38,0.44-0.76001,0.70001-1.10999c2.13-2.95001,5.57001-4.87,9.47003-4.87
	c3.89996,0,7.33997,1.91998,9.46997,4.87c0.25,0.34998,0.47998,0.72998,0.70001,1.10999c0.95001,1.69,1.51001,3.63,1.51001,5.69
	c0,6.44-5.23999,11.67999-11.67999,11.67999s-11.67999-5.23999-11.67999-11.67999
	C27.84003,38.71997,28.40002,36.77997,29.34998,35.08997z M66.22998,61.14001C66.22998,64.64996,63.38,67.5,59.87,67.5H19.15997
	c-3.5,0-6.35999-2.85004-6.35999-6.35999V33.97998h9.91003c-0.25,0.59998-0.46002,1.22998-0.64001,1.87
	c-0.45001,1.57001-0.69,3.22003-0.69,4.92999c0,10.01001,8.13,18.15002,18.14001,18.15002c10,0,18.13995-8.14001,18.13995-18.15002
	c0-1.70996-0.25-3.35999-0.69-4.92999c-0.18994-0.64001-0.39996-1.27002-0.64996-1.87h9.90997V61.14001z"/>
</svg>
