<?xml version="1.0" encoding="utf-8"?>
<!-- Generator: Adobe Illustrator 22.0.1, SVG Export Plug-In . SVG Version: 6.00 Build 0)  -->
<svg version="1.1" id="Calque_1" xmlns="http://www.w3.org/2000/svg" xmlns:xlink="http://www.w3.org/1999/xlink" x="0px" y="0px"
	 viewBox="0 0 800 800" style="enable-background:new 0 0 800 800;" xml:space="preserve">
<style type="text/css">
	.st0{display:none;}
	.st1{display:inline;}
	.st2{fill:#FFFFFF;}
</style>
<g id="Calque_1_1_" class="st0">
	<path class="st1" d="M410.7,399.4c0,12.8-0.1,25.6,0.1,38.5c0.1,4.5-1.5,6.4-5.9,6.5c-4.1,0.1-8.3,0.9-12.4,1.2
		c-5.8,0.5-6.5-0.1-6.4-5.8c0.4-25.2,0.8-50.3,1.3-75.4c0.1-5.2,0.3-10.3,0.4-15.5c0-3.1,1.3-4.5,4.4-4.8c8.5-0.7,16.9-1.4,25.4-2.4
		c3.8-0.5,5.4,0.7,6.3,4.4c4.1,17.5,8.5,34.9,13.2,53.9c1-2.8,1.6-4.3,2.1-5.9c4.6-17.2,9.2-34.4,13.5-51.7c0.8-3.2,2-4.5,5.2-4.7
		c8.3-0.7,16.6-1.5,24.9-2.4c3.5-0.4,5.3,0.9,5.3,4.7c-0.5,30.5-0.9,61-1.3,91.4c0,3.5-1.6,5.2-5,5.4c-4.6,0.3-9.3,0.6-13.9,1.3
		c-4.4,0.6-6-1-5.9-5.4c0.3-11.8,0.3-23.7,0.5-35.5c0-0.6-0.1-1.3-1-2.1c-2.7,9.3-5.4,18.6-8.1,28c-6,20.9-0.7,16.1-21.2,18.6
		c-8,1-8,0.8-10.1-7c-3.2-11.8-6.3-23.7-9.4-35.5C411.8,399.3,411.2,399.4,410.7,399.4z M437.5,409.9c-0.4,0-0.7-0.1-1.1-0.1
		c-4.9-20.4-10-40.7-14.7-61.2c-0.9-3.8-2.4-4.7-6.1-4.2c-6.7,1-13.6,1.7-20.4,2.2c-3.8,0.2-5,1.5-5.1,5.4
		c-0.3,28.8-0.8,57.6-1.2,86.5c0,1.4,0.2,2.8,0.3,4.6c6.5-0.6,12.4-1.2,19.3-1.9c0-20.4,0-40.4,0-60.4c0.4,0,0.9,0,1.3-0.1
		c0.3,0.7,0.6,1.5,0.8,2.2c4.2,15.8,8.2,31.6,12.6,47.3c3.1,11.1,0.9,9,11.7,8.3c2.3-0.2,4.6-0.6,7-0.6c3.4,0,5-1.6,5.8-4.8
		c3-11.3,6.1-22.5,9.3-33.7c2.3-8.2,4.8-16.3,7.2-24.5c0.2,0.1,0.5,0.1,0.7,0.2c0,19.9,0,39.8,0,60.4c6.3-0.6,12.3-1.2,18.7-1.8
		c0.5-32.3,1-64,1.5-96.1c-9.1,0.8-17.2,1.8-25.3,2.3c-3.5,0.2-4.9,1.7-5.7,4.9c-3.3,13.3-6.7,26.5-10.1,39.7
		C442.1,393,439.8,401.4,437.5,409.9z"/>
	<path class="st1" d="M331.5,387.5c10.2-1,19.9-1.9,29.7-2.9c4.3-0.4,8.6-0.8,12.9-1.4c3.5-0.4,5,1.2,5,4.5c0,0.2,0,0.3,0,0.5
		c0.8,17.1,0.8,17.1-16.2,18.8c-9.3,0.9-18.6,1.9-27.9,2.6c-3.2,0.2-4.3,1.5-4.2,4.6c0.2,4.8,0.1,9.5,0.1,14.9
		c9.3-0.9,18.1-1.8,26.8-2.7c7.5-0.7,14.9-1.5,22.4-2.2c3.4-0.3,5,0.9,4.9,4.5c-0.1,4-0.2,8,0,12c0.2,4.1-1.6,6-5.7,6.4
		c-17.1,1.5-34.2,3.2-51.2,4.9c-6,0.6-11.9,1.1-17.9,1.8c-3.9,0.4-5.4-1-5.3-5c0.6-30.3,1.1-60.6,1.6-91c0.1-3.6,1.5-5,5-5.4
		c21.9-2.1,43.8-4.4,65.6-6.4c6.1-0.6,7.2,0.4,7,6.5c-0.8,18.4,2.5,14-15,16.5c-10.9,1.5-21.9,2.3-32.8,3.2
		c-3.3,0.3-4.8,1.4-4.6,4.8C331.7,380.2,331.5,383.5,331.5,387.5z M308.6,451.3c24.2-2.5,48.5-5,73.2-7.5c0-5.7,0-11.1,0-16.9
		c-18,1.8-35.6,3.5-53.4,5.3c0-8.5,0-16.2,0-24.3c2.6-0.3,4.9-0.7,7.2-0.9c12.1-1.2,24.2-2.4,36.3-3.8c1.5-0.2,4.1-1.4,4.1-2.3
		c0.4-4.9,0.2-9.8,0.2-15.1c-16.1,1.6-31.4,3.1-46.9,4.7c0-7.2,0-13.7,0-20.3c2.9-0.3,5.2-0.6,7.5-0.8c13.3-1.3,26.5-2.5,39.8-3.9
		c1.5-0.2,4-1.4,4.1-2.3c0.4-4.7,0.2-9.5,0.2-14.8c-24.2,2.4-47.8,4.7-72.2,7.1C308.6,387.5,308.6,418.9,308.6,451.3z"/>
	<path class="st1" d="M276.9,408.7c0-14.4-0.1-28.9,0-43.3c0.1-9.7,0.1-9.7,9.8-10.6c2.8-0.3,5.6-0.6,8.4-0.9c5.4-0.5,6.5,0.4,6.4,6
		c-0.5,30.1-1.1,60.3-1.5,90.4c-0.1,3.4-1.4,4.9-4.6,5.1c-5.1,0.4-10.3,1.2-15.4,1.2c-1.7,0-3.9-1.7-5-3.3
		c-10.1-14.5-19.9-29.1-29.9-43.7c-1.2-1.7-2.5-3.4-5-4.8c0,3.1,0,6.2,0,9.2c-0.2,13.8-0.6,27.6-0.7,41.5c0,3.9-1.4,5.9-5.4,6
		c-4.7,0.1-9.3,0.6-13.9,0.8c-3.5,0.2-5.2-1.1-5.1-4.9c0.6-30.3,1-60.6,1.5-90.9c0-2.9,1-4.8,4.1-5.1c6.3-0.6,12.6-1.8,18.9-1.8
		c2.1,0,4.9,2.6,6.3,4.7c9.3,13.8,18.2,27.8,27.3,41.8c0.6,1,1.4,1.8,2.1,2.7C275.7,408.8,276.3,408.7,276.9,408.7z M237.1,396.2
		c0.6-0.1,1.2-0.2,1.8-0.3c3.3,4.7,6.5,9.5,9.8,14.2c9.4,13.7,18.7,27.5,28.2,41.2c0.8,1.2,2.5,2.6,3.8,2.5
		c5.4-0.3,10.9-1.1,16.7-1.8c0.6-32,1.2-63.7,1.8-95.8c-5.5,0.5-10.1,1.2-14.8,1.4c-3.6,0.2-4.7,1.8-4.7,5.3
		c-0.2,16.8-0.6,33.6-0.9,50.4c0,1.3-0.2,2.6-0.4,5.2c-1.5-2.1-2.2-3-2.8-3.9c-10.6-16.2-21.1-32.3-31.8-48.4
		c-1.1-1.6-3.1-3.9-4.6-3.9c-6.6,0.3-13.1,1.4-19.7,2.2c-0.1,1.8-0.3,3.1-0.3,4.4c-0.4,27.3-0.9,54.6-1.3,81.9
		c-0.1,9.3,0,9.4,9.6,8.4c1.7-0.2,3.3-0.5,5-0.5c3.1,0,4.3-1.3,4.3-4.6c-0.1-9.2,0.3-18.3,0.3-27.5
		C237.1,416.7,237.1,406.4,237.1,396.2z"/>
	<path class="st1" d="M545.8,328.8c7.1-0.5,7.2-0.6,10.1,7.4c10,27.7,19.9,55.5,29.7,83.2c2.1,5.9,1.2,7.1-5,7.5
		c-5.3,0.4-10.6,0.7-15.9,1.4c-3.2,0.4-5.1-0.4-5.9-3.6c-0.9-3.5-2.6-6.9-3.3-10.5c-0.7-3.6-2.1-4.6-5.7-4.1
		c-7.8,1-15.6,1.8-23.4,2.3c-3.2,0.2-5.1,1.1-5.9,4.6c-1,4.4-2.6,8.6-4.5,12.7c-0.8,1.7-3,3.7-4.9,4c-6.1,1-12.2,1.3-18.4,1.9
		c-3.9,0.3-5.2-1.3-3.8-5.1c9.7-26.2,19.4-52.4,29-78.7c2-5.5,4-10.9,5.8-16.5c1-3.1,2.7-4.7,6-4.9
		C535.2,330.1,540.5,329.4,545.8,328.8z M583.3,423.4c-0.3-1.4-0.3-2.2-0.6-3c-10.1-28.9-20.2-57.8-30.5-86.6
		c-0.4-1.1-2.6-2.3-4-2.2c-5.5,0.2-10.9,1.1-16.4,1.2c-3.5,0.1-4.9,1.8-6,4.7c-9.9,27.2-19.8,54.4-29.7,81.5
		c-1.6,4.3-3,8.6-4.8,13.8c6.8-0.7,12.6-1,18.2-2c1.7-0.3,3.7-2,4.4-3.5c2-4.5,3.2-9.5,5.3-14c0.7-1.6,2.9-3.2,4.6-3.4
		c9.2-1.2,18.6-1.7,27.8-2.9c3.6-0.5,5.1,0.8,5.9,4.2c1,4,2.3,8,3.8,11.9c0.4,1.1,2.3,2.4,3.5,2.3
		C570.8,425.1,576.7,424.2,583.3,423.4z"/>
	<path class="st1" d="M437.5,409.9c2.3-8.5,4.6-16.9,6.8-25.4c3.4-13.2,6.9-26.4,10.1-39.7c0.8-3.2,2.1-4.7,5.7-4.9
		c8.1-0.5,16.2-1.4,25.3-2.3c-0.5,32.1-1,63.8-1.5,96.1c-6.5,0.6-12.5,1.2-18.7,1.8c0-20.7,0-40.5,0-60.4c-0.2-0.1-0.5-0.1-0.7-0.2
		c-2.4,8.2-4.9,16.3-7.2,24.5c-3.2,11.2-6.4,22.4-9.3,33.7c-0.9,3.2-2.4,4.9-5.8,4.8c-2.3,0-4.6,0.5-7,0.6
		c-10.8,0.7-8.6,2.8-11.7-8.3c-4.4-15.7-8.4-31.5-12.6-47.3c-0.2-0.8-0.6-1.5-0.8-2.2c-0.4,0-0.9,0-1.3,0.1c0,20,0,39.9,0,60.4
		c-6.9,0.7-12.9,1.3-19.3,1.9c-0.1-1.8-0.4-3.2-0.3-4.6c0.4-28.8,0.9-57.6,1.2-86.5c0-3.9,1.3-5.2,5.1-5.4
		c6.8-0.4,13.6-1.1,20.4-2.2c3.7-0.6,5.2,0.3,6.1,4.2c4.7,20.4,9.8,40.8,14.7,61.2C436.8,409.8,437.1,409.9,437.5,409.9z"/>
	<path class="st1" d="M308.6,451.3c0-32.4,0-63.8,0-95.9c24.4-2.4,48-4.7,72.2-7.1c0,5.3,0.2,10-0.2,14.8c-0.1,0.9-2.6,2.2-4.1,2.3
		c-13.2,1.4-26.5,2.6-39.8,3.9c-2.3,0.2-4.6,0.5-7.5,0.8c0,6.6,0,13.1,0,20.3c15.4-1.5,30.8-3.1,46.9-4.7c0,5.3,0.2,10.3-0.2,15.1
		c-0.1,0.9-2.6,2.1-4.1,2.3c-12.1,1.4-24.2,2.5-36.3,3.8c-2.3,0.2-4.6,0.6-7.2,0.9c0,8.1,0,15.9,0,24.3c17.8-1.8,35.4-3.5,53.4-5.3
		c0,5.9,0,11.3,0,16.9C357.1,446.3,332.8,448.8,308.6,451.3z"/>
	<path class="st1" d="M237.1,396.2c0,10.2,0.1,20.4,0,30.7c-0.1,9.2-0.4,18.3-0.3,27.5c0,3.2-1.2,4.6-4.3,4.6c-1.7,0-3.3,0.3-5,0.5
		c-9.6,0.9-9.7,0.9-9.6-8.4c0.4-27.3,0.8-54.6,1.3-81.9c0-1.3,0.2-2.6,0.3-4.4c6.6-0.8,13.2-1.9,19.7-2.2c1.5-0.1,3.5,2.2,4.6,3.9
		c10.7,16.1,21.2,32.3,31.8,48.4c0.6,1,1.3,1.8,2.8,3.9c0.2-2.5,0.4-3.9,0.4-5.2c0.3-16.8,0.7-33.6,0.9-50.4c0-3.5,1.1-5.2,4.7-5.3
		c4.6-0.2,9.2-0.9,14.8-1.4c-0.6,32.1-1.2,63.7-1.8,95.8c-5.8,0.7-11.2,1.5-16.7,1.8c-1.2,0.1-3-1.3-3.8-2.5
		c-9.5-13.7-18.8-27.4-28.2-41.2c-3.2-4.7-6.5-9.5-9.8-14.2C238.3,396,237.7,396.1,237.1,396.2z"/>
	<path class="st1" d="M583.3,423.4c-6.6,0.8-12.5,1.6-18.4,2.1c-1.1,0.1-3-1.2-3.5-2.3c-1.6-3.8-2.8-7.8-3.8-11.9
		c-0.8-3.3-2.2-4.6-5.9-4.2c-9.2,1.1-18.6,1.7-27.8,2.9c-1.7,0.2-3.9,1.9-4.6,3.4c-2.1,4.5-3.2,9.4-5.3,14c-0.7,1.6-2.7,3.2-4.4,3.5
		c-5.7,0.9-11.5,1.3-18.2,2c1.8-5.2,3.2-9.5,4.8-13.8c9.9-27.2,19.9-54.3,29.7-81.5c1.1-3,2.5-4.7,6-4.7c5.5-0.1,10.9-1,16.4-1.2
		c1.3,0,3.6,1.1,4,2.2c10.3,28.8,20.4,57.7,30.5,86.6C583,421.2,583,422,583.3,423.4z M550.4,390.9c-3.9-12.3-7.5-23.7-11.1-35
		c-0.4,0.1-0.7,0.2-1.1,0.2c-4.1,12.2-8.1,24.3-12.4,37.3C534.5,392.5,542,391.7,550.4,390.9z"/>
	<path class="st1" d="M550.4,390.9c-8.4,0.9-16,1.6-24.7,2.5c4.3-13,8.4-25.2,12.4-37.3c0.4-0.1,0.7-0.2,1.1-0.2
		C542.9,367.2,546.5,378.6,550.4,390.9z M529.6,390.3c6.2-0.6,11.5-1.2,17.3-1.8c-2.8-8.5-5.3-16.3-8.2-25.3
		C535.4,372.9,532.6,381.2,529.6,390.3z"/>
</g>
<g id="Calque_2_1_">
	<path class="st0" d="M697.2,219.6L697.2,219.6L395.9,44.4c-8.7-5.1-19.5-5.1-28.2,0L75.8,214c-6.3,3.6-10.1,10.3-10.1,17.5l-0.1,48
		c0,1.7-1.4,3-3,3l-13.5,0c-1.6,0-3-1.3-3-3v-50.5c0-11.7,6.2-22.5,16.3-28.4l306-178.6c8.2-4.8,18.4-4.8,26.7,0l315.9,183.7
		c1.9,1.1,3.1,3.2,3.2,5.4l0.1,3.8c0,2.4-1.9,4.4-4.3,4.5L697.2,219.6z"/>
	<path class="st0" d="M69.2,567.3L69.2,567.3l301.3,175.2c8.7,5.1,19.5,5.1,28.2,0l291.9-169.6c6.3-3.6,10.1-10.3,10.1-17.5l0.1-48
		c0-1.7,1.4-3,3-3l13.5,0c1.6,0,3,1.3,3,3v50.5c0,11.7-6.2,22.5-16.3,28.4L398,764.8c-8.2,4.8-18.4,4.8-26.7,0L55.4,581.1
		c-1.9-1.1-3.1-3.2-3.2-5.4l-0.1-3.8c0-2.4,1.9-4.4,4.3-4.5L69.2,567.3z"/>
	<g>
		<g>
			<g>
				<polygon class="st2" points="43.6,528.5 81.5,525.2 83.8,397.6 165,517.5 201.9,513.3 205.5,321.2 167.7,325.4 165.9,447.9 
					90.1,332.8 47.3,337.6 				"/>
				<polygon class="st2" points="226,319.7 369.1,305.4 369.1,338.4 265.3,348.9 264.4,389.6 359.3,380.7 359,414.3 263.8,424.8 
					263.2,472.9 371.2,462.7 371.2,496.4 222.7,511.8 				"/>
				<g>
					<polygon class="st2" points="387.8,303.3 447.3,297.1 480.6,433.9 517.8,289.7 576.4,284.3 573.7,476.5 535.3,480.3 
						536.8,350.6 499.3,483.3 458.3,488.3 425.3,362.8 422.6,490.7 384.8,494.9 					"/>
					<path class="st2" d="M707.2,271.2l-46.4,4.5l-72.6,198.7l44-4.8l14-39.9l71.1-7.4l11.9,38.4l44.2-5.1L707.2,271.2z M657,395.3
						l26.5-78.8l22.9,73.2L657,395.3z"/>
				</g>
			</g>
			<path class="st2" d="M71.8,564.2c3.5-0.4,6.8-0.7,10.5-1.1c0,1.2,0,2.1,0,3c0,6.5,0.1,12.9-0.1,19.4c0,2,0.7,3,2.3,4
				c44.9,26.1,89.7,52.3,134.7,78.3c62.4,36,124.9,71.9,187.4,107.9c1.3,0.8,2.3,0.7,3.6,0c52.7-30.4,105.3-60.8,158-91.2
				c54.7-31.6,109.5-63.1,164.2-94.6c1.5-0.9,2-1.8,2-3.5c-0.1-28.6,0-57.2,0-85.7c0-0.9,0-1.8,0-2.9c3.6-0.4,7.1-0.7,10.8-1.1
				c0,0.9,0.1,1.7,0.1,2.5c0,31,0,61.9,0,92.9c0,1.7-0.5,2.7-2,3.5c-22.3,13-44.6,26.2-67,39.1c-42,24.3-84.1,48.5-126.1,72.8
				c-46.6,27-93.2,54-139.8,81.1c-1.4,0.8-2.4,0.8-3.8,0c-103.9-60-207.8-119.9-311.7-179.8c-7.4-4.3-14.9-8.6-22.2-13
				c-0.7-0.4-1.5-1.3-1.5-2c-0.1-9.6,0-19.1,0-28.7C71.6,564.7,71.7,564.5,71.8,564.2z"/>
			<path class="st2" d="M746,221.6c-3.7,0.3-7.1,0.6-11,1c0-2.7-0.1-5.2,0-7.6c0.1-1.6-0.4-2.5-1.8-3.3
				c-54.1-31.3-108-62.7-162.1-93.9c-53.4-30.8-107-61.5-160.5-92.3c-1.5-0.9-2.6-0.9-4.1,0c-49.5,28.6-99.1,57.1-148.6,85.7
				C206,141,154.1,170.9,102.2,200.8c-4.9,2.8-9.8,5.5-14.8,8.2c-3.9,2.1-5.4,5.3-5.3,9.6c0.3,18.5,0.5,36.9,0.7,55.4
				c0,0.8,0,1.6,0,2.7c-3.6,0.3-7.1,0.6-10.8,1c0-1,0-1.8,0-2.6c0-14.5,0.1-29.1,0-43.6c0-5.3-0.3-10.5-0.8-15.8
				c-0.7-6.8,1.6-11.3,7.8-14.8c22.2-12.3,44.3-24.9,66.3-37.6c87-50.2,174-100.4,261-150.7c1.6-0.9,2.7-1,4.4,0
				c87.3,50.4,174.6,100.6,261.9,151c23.9,13.8,47.7,27.7,71.5,41.5c1.5,0.9,2.1,1.8,2,3.5C745.9,212.8,746,217.1,746,221.6z"/>
		</g>
	</g>
</g>
</svg>
