<?xml version="1.0" encoding="utf-8"?>
<!-- Generator: Adobe Illustrator 22.0.1, SVG Export Plug-In . SVG Version: 6.00 Build 0)  -->
<svg version="1.1" id="Calque_1" xmlns="http://www.w3.org/2000/svg" xmlns:xlink="http://www.w3.org/1999/xlink" x="0px" y="0px"
	 viewBox="0 0 200 80" style="enable-background:new 0 0 200 80;" xml:space="preserve">
<style type="text/css">
	.st0{display:none;}
	.st1{fill:#FFFFFF;}
</style>
<g id="Calque_2_1_">
	<path class="st0" d="M173-4.3L173-4.3L97.7-48.1c-2.2-1.3-4.9-1.3-7,0l-73,42.4c-1.6,0.9-2.5,2.6-2.5,4.4l0,12
		c0,0.4-0.3,0.7-0.7,0.7H11c-0.4,0-0.7-0.3-0.7-0.7V-2c0-2.9,1.5-5.6,4.1-7.1l76.5-44.6c2-1.2,4.6-1.2,6.7,0l79,45.9
		c0.5,0.3,0.8,0.8,0.8,1.3l0,0.9c0,0.6-0.5,1.1-1.1,1.1L173-4.3z"/>
	<path class="st0" d="M16,82.6L16,82.6l75.3,43.8c2.2,1.3,4.9,1.3,7,0l73-42.4c1.6-0.9,2.5-2.6,2.5-4.4l0-12c0-0.4,0.3-0.7,0.7-0.7
		h3.4c0.4,0,0.7,0.3,0.7,0.7v12.6c0,2.9-1.5,5.6-4.1,7.1l-76.5,44.6c-2,1.2-4.6,1.2-6.7,0L12.5,86c-0.5-0.3-0.8-0.8-0.8-1.3l0-0.9
		c0-0.6,0.5-1.1,1.1-1.1L16,82.6z"/>
	<g>
		<g>
			<g>
				<polygon class="st1" points="9.6,72.9 19.1,72.1 19.6,40.2 39.9,70.1 49.2,69.1 50.1,21.1 40.6,22.1 40.2,52.7 21.2,24 
					10.5,25.2 				"/>
				<polygon class="st1" points="55.2,20.7 91,17.1 91,25.4 65,28 64.8,38.2 88.5,36 88.4,44.3 64.6,47 64.5,59 91.5,56.4 
					91.5,64.9 54.4,68.7 				"/>
				<g>
					<polygon class="st1" points="95.6,16.6 110.5,15.1 118.8,49.2 128.1,13.2 142.8,11.9 142.1,59.9 132.5,60.8 132.9,28.4 
						123.5,61.6 113.2,62.8 105,31.5 104.3,63.4 94.9,64.5 					"/>
					<path class="st1" d="M175.5,8.6l-11.6,1.1l-18.1,49.7l11-1.2l3.5-10l17.8-1.8l3,9.6l11-1.3L175.5,8.6z M162.9,39.6l6.6-19.7
						l5.7,18.3L162.9,39.6z"/>
				</g>
			</g>
		</g>
	</g>
</g>
</svg>
