<?xml version="1.0" standalone="no"?>
<!DOCTYPE svg PUBLIC "-//W3C//DTD SVG 20010904//EN"
 "http://www.w3.org/TR/2001/REC-SVG-20010904/DTD/svg10.dtd">
<svg version="1.0" xmlns="http://www.w3.org/2000/svg"
 width="700.000000pt" height="700.000000pt" viewBox="0 0 700.000000 700.000000"
 preserveAspectRatio="xMidYMid meet">
<metadata>
Created by potrace 1.11, written by Peter Selinger 2001-2013
</metadata>
<g transform="translate(0.000000,700.000000) scale(0.100000,-0.100000)"
fill="#000000" stroke="none">
<path d="M3185 6844 c-148 -86 -288 -166 -310 -179 -22 -12 -143 -82 -270
-155 -126 -73 -367 -211 -535 -308 -168 -96 -406 -233 -530 -305 -124 -71
-355 -204 -515 -294 -159 -91 -353 -201 -430 -245 -77 -44 -149 -91 -159 -106
-17 -22 -19 -40 -17 -121 1 -53 3 -193 3 -311 l1 -215 49 3 48 4 -2 284 -3
284 25 24 c14 13 59 41 100 64 61 32 163 90 250 141 34 20 517 298 560 322 25
14 165 95 310 179 146 84 285 164 310 178 52 29 515 295 740 425 85 49 180
103 210 119 30 17 67 39 82 49 14 11 29 19 32 19 4 0 134 72 196 110 90 54
126 71 144 68 12 -3 329 -181 706 -397 377 -217 703 -403 725 -416 22 -12 69
-39 105 -60 36 -20 79 -45 95 -55 17 -9 154 -88 305 -175 151 -86 287 -166
302 -176 15 -11 29 -19 31 -19 2 0 81 -44 174 -98 94 -55 177 -102 184 -106 8
-3 82 -46 164 -94 l150 -87 3 -49 c3 -44 5 -48 25 -42 12 3 34 6 50 6 27 0 27
1 27 66 0 43 -5 70 -14 80 -8 8 -17 14 -19 14 -2 0 -56 30 -118 66 -63 37
-188 109 -279 162 -91 52 -221 127 -290 167 -69 40 -145 83 -170 97 -25 14
-101 58 -170 98 -164 95 -183 106 -227 131 -21 12 -112 64 -203 117 -91 52
-178 103 -195 112 -151 85 -295 169 -363 209 -29 17 -55 31 -57 31 -2 0 -49
27 -104 60 -56 33 -104 60 -106 60 -3 0 -24 12 -46 26 -23 14 -60 36 -82 49
-23 13 -168 96 -322 184 -153 89 -284 161 -290 161 -5 0 -131 -71 -280 -156z"/>
<path d="M6037 4654 c-1 -1 -36 -5 -77 -9 -41 -4 -88 -9 -105 -11 -16 -1 -47
-4 -68 -5 -35 -3 -38 -6 -56 -53 -10 -28 -53 -143 -94 -256 -42 -113 -126
-342 -188 -510 -62 -168 -120 -327 -129 -355 -10 -27 -40 -111 -68 -185 -156
-421 -165 -449 -144 -437 4 3 39 8 77 12 39 4 84 9 100 10 17 2 64 7 105 10
41 4 82 11 90 15 8 4 37 73 64 152 74 213 71 208 109 209 17 1 41 3 52 4 11 1
49 5 85 9 79 8 145 16 185 21 57 8 200 19 244 20 l43 0 49 -158 c27 -87 52
-163 55 -169 4 -6 28 -8 63 -3 31 3 76 8 101 11 25 3 54 7 65 9 11 1 55 6 98
10 42 4 75 11 72 15 -3 4 -27 70 -54 146 -27 77 -69 195 -94 264 -267 739
-402 1116 -421 1170 l-23 65 -67 1 c-36 0 -68 -1 -69 -2z m22 -734 c55 -173
98 -316 96 -318 -4 -5 -44 -10 -205 -28 -19 -2 -53 -6 -75 -9 -117 -13 -155
-15 -155 -8 0 8 160 490 207 622 15 41 28 70 30 65 1 -5 47 -151 102 -324z"/>
<path d="M4938 4545 c-2 -2 -37 -6 -78 -9 -41 -4 -95 -9 -120 -11 -25 -3 -70
-7 -100 -10 -133 -12 -175 -17 -182 -23 -7 -7 -28 -86 -103 -377 -26 -99 -58
-223 -71 -275 -14 -52 -27 -102 -29 -110 -23 -98 -129 -498 -134 -508 -4 -7
-17 32 -30 85 -12 54 -62 260 -111 458 -48 198 -105 429 -125 513 -42 172 -27
158 -150 142 -38 -4 -102 -11 -140 -15 -39 -3 -79 -8 -90 -10 -11 -1 -59 -6
-107 -10 -86 -7 -88 -8 -89 -34 -1 -46 -7 -434 -14 -876 -3 -236 -8 -519 -10
-628 l-4 -198 57 6 c31 3 68 8 82 10 14 2 54 7 90 10 125 11 115 1 117 118 1
56 5 266 9 467 4 201 8 409 8 462 1 53 4 94 8 90 4 -4 16 -45 27 -92 12 -47
25 -98 31 -115 5 -16 27 -100 49 -185 22 -85 54 -207 71 -270 17 -63 32 -119
33 -125 2 -5 21 -79 42 -163 l40 -153 55 5 c30 3 66 8 80 10 14 3 70 10 125
16 55 6 104 15 108 19 4 5 44 134 87 287 44 153 86 302 94 329 35 118 138 482
142 504 16 80 21 22 18 -230 -2 -156 -6 -415 -8 -576 l-3 -292 40 4 c21 3 69
7 106 10 36 3 77 7 89 10 13 2 43 5 68 6 32 2 44 7 44 18 1 9 3 140 5 291 8
635 17 1260 19 1333 1 43 -1 81 -4 85 -5 7 -36 12 -42 7z"/>
<path d="M3100 4357 c-3 -2 -43 -8 -90 -11 -47 -4 -98 -9 -115 -11 -16 -3 -59
-7 -95 -10 -69 -6 -100 -9 -250 -25 -52 -5 -124 -12 -160 -15 -76 -7 -161 -15
-210 -20 -73 -8 -137 -15 -195 -20 -105 -10 -160 -17 -165 -21 -2 -3 -5 -44
-6 -92 -5 -297 -16 -961 -19 -1092 -2 -85 -4 -240 -6 -345 l-2 -190 44 1 c49
0 182 12 215 18 11 2 61 7 109 11 49 3 91 8 94 9 3 2 42 7 86 11 44 4 91 8
105 10 14 1 57 5 95 9 39 4 86 9 105 11 19 2 62 7 95 10 33 3 76 8 95 10 19 3
55 7 80 9 91 9 185 19 200 21 12 2 15 28 18 153 l3 152 -58 -5 c-32 -3 -74 -8
-93 -10 -19 -2 -66 -7 -105 -10 -38 -3 -88 -8 -110 -10 -22 -2 -71 -6 -110
-10 -38 -3 -88 -8 -110 -10 -22 -3 -71 -7 -110 -10 -38 -3 -80 -8 -93 -10 -12
-2 -60 -7 -106 -10 l-83 -7 1 216 c1 198 2 216 19 217 9 1 20 2 25 3 4 1 45 6
92 11 47 5 87 9 90 10 3 1 41 5 85 9 44 4 91 9 105 11 14 2 70 9 125 15 55 6
114 13 130 15 17 2 64 7 105 11 41 3 78 8 83 11 4 2 7 72 7 154 l0 151 -37 -6
c-21 -3 -65 -8 -98 -11 -33 -3 -80 -7 -105 -10 -25 -2 -76 -7 -115 -10 -38 -3
-88 -8 -110 -10 -22 -3 -65 -7 -95 -9 -30 -3 -86 -8 -125 -12 -38 -4 -92 -8
-120 -8 l-50 -1 2 90 c0 50 2 131 2 181 1 65 5 91 14 91 13 0 123 11 172 17
17 2 62 7 100 10 39 4 90 8 115 11 25 3 70 7 100 10 30 3 71 7 90 10 36 4 90
10 215 20 77 7 128 14 132 19 6 5 -2 298 -7 293z"/>
<path d="M1619 4216 c-2 -2 -38 -7 -79 -11 -41 -3 -82 -8 -90 -10 -8 -2 -46
-7 -85 -10 -38 -3 -71 -8 -73 -10 -2 -1 -6 -149 -8 -327 -5 -311 -12 -713 -13
-752 -1 -16 -156 213 -560 827 l-124 188 -51 -6 c-28 -3 -67 -8 -86 -10 -19
-3 -57 -7 -85 -10 -87 -8 -160 -17 -163 -20 -2 -1 -5 -112 -7 -246 -3 -134 -7
-347 -10 -474 -2 -126 -7 -385 -11 -575 -3 -190 -7 -362 -9 -383 l-2 -39 76 6
c42 3 110 8 151 11 130 9 120 -1 121 123 0 59 2 172 4 252 2 80 6 287 9 460 4
173 8 315 9 316 2 2 244 -352 509 -744 65 -95 141 -207 170 -248 l52 -76 75 7
c42 3 83 8 91 10 8 2 47 6 85 10 39 4 73 10 77 13 4 4 10 156 13 337 5 337 10
610 20 1113 3 155 4 282 2 282 -2 0 -6 -2 -8 -4z"/>
<path d="M6470 2632 c-19 -2 -39 -8 -45 -13 -6 -6 -10 -157 -10 -409 0 -251
-4 -403 -10 -408 -8 -8 -760 -441 -950 -548 -22 -12 -139 -79 -260 -149 -121
-70 -238 -138 -260 -150 -22 -12 -125 -71 -230 -132 -174 -100 -1033 -594
-1115 -640 -19 -11 -51 -30 -70 -41 -19 -12 -43 -22 -52 -22 -10 0 -185 96
-390 214 -205 117 -389 222 -408 233 -84 48 -1065 611 -1174 675 -67 39 -141
82 -165 96 -25 14 -68 38 -95 55 -28 16 -64 37 -81 47 -48 27 -209 120 -225
130 -8 5 -98 57 -200 115 -102 59 -192 114 -200 124 -12 14 -16 41 -14 120 l1
102 -46 -3 -46 -3 -3 -137 -3 -137 98 -57 c161 -95 386 -224 390 -224 2 0 20
-11 41 -23 20 -13 57 -35 82 -49 25 -14 149 -85 275 -158 127 -73 246 -142
265 -153 19 -10 139 -79 265 -152 127 -73 338 -194 470 -270 132 -76 325 -187
429 -247 103 -59 190 -108 191 -108 2 0 40 -22 85 -50 45 -27 83 -50 85 -50 4
0 295 -168 310 -179 6 -4 24 -13 41 -20 29 -11 38 -8 215 95 101 58 312 180
469 271 157 90 292 169 300 173 67 40 222 130 225 130 2 0 32 17 66 38 35 21
89 52 119 69 30 17 96 54 145 83 50 29 110 64 135 78 25 14 88 50 140 80 52
30 115 66 140 80 38 21 829 480 1043 604 37 22 68 47 68 56 4 61 4 840 -1 852
-3 10 -16 14 -40 12z"/>
</g>
</svg>
